<svg width="1200" height="675" viewBox="0 0 1200 675" xmlns="http://www.w3.org/2000/svg" role="img" aria-labelledby="cover-title">
  <title id="cover-title">预算 · 分配权</title>
  <defs>
    <linearGradient id="bg-mint" x1="0" y1="0" x2="1200" y2="675" gradientUnits="userSpaceOnUse">
      <stop offset="0" stop-color="#F1EFE7"/>
      <stop offset="1" stop-color="#E3E7DD"/>
    </linearGradient>
    <linearGradient id="block-forest" x1="0" y1="0" x2="500" y2="675" gradientUnits="userSpaceOnUse">
      <stop offset="0" stop-color="#1F5142"/>
      <stop offset="1" stop-color="#0F3128"/>
    </linearGradient>
  </defs>

  <rect width="1200" height="675" fill="url(#bg-mint)"/>

  <path d="M0 0 L500 0 L420 675 L0 675 Z" fill="url(#block-forest)"/>

  <circle cx="210" cy="330" r="155" fill="none" stroke="#FFFFFF" stroke-width="2.5" opacity="0.35"/>
  <path d="M210 175 A155 155 0 0 1 365 330 L210 330 Z" fill="#FFC857" opacity="0.92"/>
  <path d="M365 330 A155 155 0 0 1 285 462 L210 330 Z" fill="#7DB89B" opacity="0.85"/>
  <path d="M285 462 A155 155 0 0 1 90 380 L210 330 Z" fill="#FFFFFF" opacity="0.55"/>

  <text x="158" y="345" font-family="'PingFang SC','Microsoft YaHei',sans-serif" font-size="36" font-weight="900" fill="#0F3128">100%</text>

  <text x="550" y="86" font-family="'PingFang SC','Microsoft YaHei',sans-serif" font-size="22" font-weight="800" letter-spacing="4" fill="#1F5142" opacity="0.7">BUDGET · 02</text>

  <line x1="550" y1="115" x2="1120" y2="115" stroke="#1F5142" stroke-width="1.5" opacity="0.35"/>

  <text x="550" y="290" font-family="'PingFang SC','Microsoft YaHei',sans-serif" font-size="170" font-weight="900" fill="#1F5142" letter-spacing="-4">预算</text>

  <text x="552" y="350" font-family="'PingFang SC','Microsoft YaHei',sans-serif" font-size="34" font-weight="600" fill="#1F5142" opacity="0.78">给每一笔钱分配权</text>

  <g font-family="'PingFang SC','Microsoft YaHei',sans-serif" font-size="20" font-weight="700">
    <text x="552" y="425" fill="#1F5142" opacity="0.65">伙食</text>
    <rect x="640" y="409" width="320" height="18" rx="2" fill="#1F5142" opacity="0.85"/>

    <text x="552" y="465" fill="#1F5142" opacity="0.65">长途出行</text>
    <rect x="640" y="449" width="180" height="18" rx="2" fill="#7DB89B"/>

    <text x="552" y="505" fill="#1F5142" opacity="0.65">周转金</text>
    <rect x="640" y="489" width="240" height="18" rx="2" fill="#FFC857"/>

    <text x="552" y="545" fill="#1F5142" opacity="0.65">礼物基金</text>
    <rect x="640" y="529" width="110" height="18" rx="2" fill="#C97A4A"/>
  </g>

  <line x1="550" y1="595" x2="1120" y2="595" stroke="#1F5142" stroke-width="1.5" opacity="0.35"/>
  <text x="550" y="630" font-family="'PingFang SC','Microsoft YaHei',sans-serif" font-size="18" font-weight="700" letter-spacing="2" fill="#1F5142" opacity="0.55">青微的博客 · 理财基础</text>
</svg>
